<svg width="18" height="18" viewBox="0 0 18 18" fill="none" xmlns="http://www.w3.org/2000/svg">
<g clip-path="url(#clip0_42_23)">
<path d="M6 12.75L9 15.75L12 12.75" stroke="#ABABAB" stroke-linecap="round" stroke-linejoin="round"/>
<path d="M9 9V15.75" stroke="#ABABAB" stroke-linecap="round" stroke-linejoin="round"/>
<path d="M15.9167 13.3262C16.5688 12.8677 17.0577 12.2134 17.3127 11.4581C17.5676 10.7028 17.5753 9.886 17.3345 9.12611C17.0938 8.36621 16.6171 7.70281 15.9738 7.23216C15.3304 6.76151 14.5538 6.50812 13.7567 6.50874H12.8117C12.5862 5.62964 12.1641 4.81317 11.5773 4.1208C10.9905 3.42842 10.2543 2.87818 9.42413 2.5115C8.59393 2.14482 7.69136 1.97126 6.78437 2.00388C5.87738 2.03649 4.98961 2.27444 4.18789 2.69981C3.38617 3.12518 2.69139 3.72687 2.15587 4.45961C1.62034 5.19235 1.25801 6.03702 1.09617 6.93005C0.934327 7.82308 0.977182 8.74119 1.22151 9.61525C1.46584 10.4893 1.90527 11.2966 2.50672 11.9762" stroke="#ABABAB" stroke-linecap="round" stroke-linejoin="round"/>
</g>
<defs>
<clipPath id="clip0_42_23">
<rect width="18" height="18" fill="white"/>
</clipPath>
</defs>
</svg>
